<?xml version="1.0" encoding="iso-8859-1"?>
<!-- Generator: Adobe Illustrator 19.0.0, SVG Export Plug-In . SVG Version: 6.00 Build 0)  -->
<svg version="1.1" id="Layer_1" xmlns="http://www.w3.org/2000/svg" xmlns:xlink="http://www.w3.org/1999/xlink" x="0px" y="0px"
	 viewBox="0 0 512 512" style="enable-background:new 0 0 512 512;" xml:space="preserve">
<g>
	<path style="fill:#FBD971;" d="M512,256c0,141.383-114.617,256-256,256S0,397.383,0,256S114.617,0,256,0S512,114.617,512,256"/>
	<g>
		<path style="fill:#FFFFFF;" d="M203.034,167.724c0,29.255-15.81,52.966-35.31,52.966s-35.31-23.711-35.31-52.966
			s15.81-52.966,35.31-52.966S203.034,138.47,203.034,167.724"/>
		<path style="fill:#FFFFFF;" d="M379.586,167.724c0,29.255-15.81,52.966-35.31,52.966c-19.5,0-35.31-23.711-35.31-52.966
			s15.81-52.966,35.31-52.966C363.776,114.759,379.586,138.47,379.586,167.724"/>
	</g>
	<g>
		<path d="M335.448,167.724c0,4.873,3.955,8.828,8.828,8.828c4.873,0,8.828-3.955,8.828-8.828s-3.955-8.828-8.828-8.828
			C339.403,158.897,335.448,162.851,335.448,167.724"/>
		<path d="M158.897,167.724c0,4.873,3.955,8.828,8.828,8.828c4.873,0,8.828-3.955,8.828-8.828s-3.955-8.828-8.828-8.828
			C162.851,158.897,158.897,162.851,158.897,167.724"/>
	</g>
</g>
<g>
</g>
<g>
</g>
<g>
</g>
<g>
</g>
<g>
</g>
<g>
</g>
<g>
</g>
<g>
</g>
<g>
</g>
<g>
</g>
<g>
</g>
<g>
</g>
<g>
</g>
<g>
</g>
<g>
</g>
</svg>
