<svg width="42" height="40" viewBox="0 0 42 40" fill="none" xmlns="http://www.w3.org/2000/svg">
<g clip-path="url(#clip0_201_528)">
<path d="M37.6666 7.49999H18.8055L15.5972 3.08333C15.3386 2.72944 14.9999 2.44178 14.6089 2.24383C14.2178 2.04589 13.7855 1.9433 13.3472 1.94444H4.33332C3.59661 1.94444 2.89007 2.23709 2.36913 2.75803C1.8482 3.27896 1.55554 3.9855 1.55554 4.72221V35.2778C1.55554 36.0145 1.8482 36.721 2.36913 37.242C2.89007 37.7629 3.59661 38.0556 4.33332 38.0556H37.6666C38.4034 38.0556 39.1099 37.7629 39.6308 37.242C40.1518 36.721 40.4444 36.0145 40.4444 35.2778V10.2778C40.4444 9.54106 40.1518 8.83452 39.6308 8.31359C39.1099 7.79265 38.4034 7.49999 37.6666 7.49999ZM4.33332 10.2778V4.72221H13.3472L17.125 10.2778H4.33332Z" fill="#FFE456"/>
</g>
<defs>
<clipPath id="clip0_201_528">
<rect width="42" height="40" fill="white"/>
</clipPath>
</defs>
</svg>
