<svg width="34" height="44" viewBox="0 0 34 44" fill="none" xmlns="http://www.w3.org/2000/svg">
<g clip-path="url(#clip0_201_523)">
<path d="M33.6667 43.875H0.333374V0.125H23.25L33.6667 10.5417V43.875Z" fill="#E6E6E6"/>
<path d="M32.1042 11.5833H22.2084V1.6875L32.1042 11.5833Z" fill="#D5D6DE"/>
<path d="M12.1666 17H25.5V18.6667H12.1666V17ZM12.1666 20.3333H25.5V22H12.1666V20.3333ZM12.1666 23.6667H25.5V25.3333H12.1666V23.6667ZM12.1666 27H25.5V28.6667H12.1666V27ZM12.1666 30.3333H25.5V32H12.1666V30.3333Z" fill="#3356F6"/>
<path d="M8 17H9.66667V18.6667H8V17ZM8 20.3333H9.66667V22H8V20.3333ZM8 23.6667H9.66667V25.3333H8V23.6667ZM8 27H9.66667V28.6667H8V27ZM8 30.3333H9.66667V32H8V30.3333Z" fill="#3356F6"/>
</g>
<defs>
<clipPath id="clip0_201_523">
<rect width="34" height="44" fill="white"/>
</clipPath>
</defs>
</svg>
