<svg width="34" height="44" viewBox="0 0 34 44" fill="none" xmlns="http://www.w3.org/2000/svg">
<g clip-path="url(#clip0_201_485)">
<path d="M33.6666 43.875H0.333313V0.125H23.25L33.6666 10.5417V43.875Z" fill="#67AD5B"/>
<path d="M32.1041 11.5833H22.2083V1.6875L32.1041 11.5833Z" fill="#91C58A"/>
<path d="M13.875 20.9583L6.58331 31.375H21.1666L13.875 20.9583Z" fill="#2B931A"/>
<path d="M21.1666 24.5L15.9583 31.375H26.375L21.1666 24.5Z" fill="#91C58A"/>
<path d="M23.25 22.5208C23.25 22.9352 23.4146 23.3327 23.7076 23.6257C24.0007 23.9187 24.3981 24.0833 24.8125 24.0833C25.2269 24.0833 25.6243 23.9187 25.9174 23.6257C26.2104 23.3327 26.375 22.9352 26.375 22.5208C26.375 22.1064 26.2104 21.709 25.9174 21.416C25.6243 21.123 25.2269 20.9583 24.8125 20.9583C24.3981 20.9583 24.0007 21.123 23.7076 21.416C23.4146 21.709 23.25 22.1064 23.25 22.5208Z" fill="#91C58A"/>
</g>
<defs>
<clipPath id="clip0_201_485">
<rect width="34" height="44" fill="white"/>
</clipPath>
</defs>
</svg>
