<svg width="40" height="42" viewBox="0 0 40 42" fill="none" xmlns="http://www.w3.org/2000/svg">
<path fill-rule="evenodd" clip-rule="evenodd" d="M28 14.1855C34.308 14.1855 40 18.5575 40 24.6115C40 28.0035 38.16 30.9175 35.48 32.7715C35.392 33.3015 35.464 33.8355 35.464 34.3695C35.4667 34.8482 35.2792 35.3083 34.9428 35.6488C34.6064 35.9893 34.1486 36.1824 33.67 36.1855C32.31 36.1855 31.05 35.7375 29.984 34.8955C29.3269 34.9899 28.6639 35.0373 28 35.0375C21.692 35.0375 16 30.6655 16 24.6115C16 18.5575 21.692 14.1855 28 14.1855ZM15 0.185547C22.554 0.185547 29.298 5.25555 29.948 12.3095C29.3018 12.2286 28.6513 12.1872 28 12.1855C20.934 12.1855 14 17.1315 14 24.6035C14 25.3115 14.06 25.9962 14.18 26.6575C13.5598 26.6269 12.9417 26.5641 12.328 26.4695C10.988 27.5675 9.442 28.1855 7.708 28.1855C6.672 28.1855 5.834 27.3175 5.834 26.2455L5.842 25.8515L5.876 25.0575C5.89529 24.661 5.85825 24.2637 5.766 23.8775C2.34 21.5195 0 17.7735 0 13.4335C0 5.79955 7.05 0.185547 15 0.185547ZM24 20.1855C23.4696 20.1855 22.9609 20.3963 22.5858 20.7713C22.2107 21.1464 22 21.6551 22 22.1855C22 22.716 22.2107 23.2247 22.5858 23.5998C22.9609 23.9748 23.4696 24.1855 24 24.1855C24.5304 24.1855 25.0391 23.9748 25.4142 23.5998C25.7893 23.2247 26 22.716 26 22.1855C26 21.6551 25.7893 21.1464 25.4142 20.7713C25.0391 20.3963 24.5304 20.1855 24 20.1855ZM32 20.1855C31.4696 20.1855 30.9609 20.3963 30.5858 20.7713C30.2107 21.1464 30 21.6551 30 22.1855C30 22.716 30.2107 23.2247 30.5858 23.5998C30.9609 23.9748 31.4696 24.1855 32 24.1855C32.5304 24.1855 33.0391 23.9748 33.4142 23.5998C33.7893 23.2247 34 22.716 34 22.1855C34 21.6551 33.7893 21.1464 33.4142 20.7713C33.0391 20.3963 32.5304 20.1855 32 20.1855ZM10 6.18555C9.46957 6.18555 8.96086 6.39626 8.58579 6.77133C8.21071 7.14641 8 7.65511 8 8.18555C8 8.71598 8.21071 9.22469 8.58579 9.59976C8.96086 9.97483 9.46957 10.1855 10 10.1855C10.5304 10.1855 11.0391 9.97483 11.4142 9.59976C11.7893 9.22469 12 8.71598 12 8.18555C12 7.65511 11.7893 7.14641 11.4142 6.77133C11.0391 6.39626 10.5304 6.18555 10 6.18555ZM20 6.18555C19.4696 6.18555 18.9609 6.39626 18.5858 6.77133C18.2107 7.14641 18 7.65511 18 8.18555C18 8.71598 18.2107 9.22469 18.5858 9.59976C18.9609 9.97483 19.4696 10.1855 20 10.1855C20.5304 10.1855 21.0391 9.97483 21.4142 9.59976C21.7893 9.22469 22 8.71598 22 8.18555C22 7.65511 21.7893 7.14641 21.4142 6.77133C21.0391 6.39626 20.5304 6.18555 20 6.18555Z" fill="white"/>
</svg>
