<svg width="47" height="42" viewBox="0 0 47 42" fill="none" xmlns="http://www.w3.org/2000/svg">
<path fill-rule="evenodd" clip-rule="evenodd" d="M32.2845 16.1423C39.5578 16.1423 46.1208 21.1833 46.1208 28.1636C46.1208 32.0747 43.9992 35.4346 40.9091 37.5723C40.8076 38.1834 40.8907 38.7991 40.8907 39.4148C40.8937 39.9667 40.6776 40.4972 40.2897 40.8898C39.9019 41.2824 39.374 41.505 38.8221 41.5087C37.254 41.5087 35.8012 40.9921 34.5721 40.0213C33.8144 40.13 33.05 40.1847 32.2845 40.185C25.0113 40.185 18.4483 35.144 18.4483 28.1636C18.4483 21.1833 25.0113 16.1423 32.2845 16.1423ZM17.2953 0C26.0052 0 33.7811 5.84581 34.5306 13.9792C33.7855 13.8859 33.0354 13.8381 32.2845 13.8362C24.1373 13.8362 16.1423 19.5391 16.1423 28.1544C16.1423 28.9707 16.2114 29.7602 16.3498 30.5227C15.6347 30.4873 14.922 30.415 14.2144 30.3059C12.6694 31.572 10.8868 32.2845 8.88747 32.2845C7.69294 32.2845 6.72671 31.2837 6.72671 30.0477L6.73594 29.5934L6.77514 28.6779C6.79738 28.2206 6.75468 27.7626 6.64831 27.3173C2.69806 24.5985 0 20.2793 0 15.2752C0 6.47305 8.12878 0 17.2953 0ZM27.6724 23.0604C27.0609 23.0604 26.4743 23.3033 26.0418 23.7358C25.6094 24.1683 25.3664 24.7548 25.3664 25.3664C25.3664 25.978 25.6094 26.5646 26.0418 26.997C26.4743 27.4295 27.0609 27.6724 27.6724 27.6724C28.284 27.6724 28.8706 27.4295 29.3031 26.997C29.7355 26.5646 29.9785 25.978 29.9785 25.3664C29.9785 24.7548 29.7355 24.1683 29.3031 23.7358C28.8706 23.3033 28.284 23.0604 27.6724 23.0604ZM36.8966 23.0604C36.285 23.0604 35.6984 23.3033 35.266 23.7358C34.8335 24.1683 34.5906 24.7548 34.5906 25.3664C34.5906 25.978 34.8335 26.5646 35.266 26.997C35.6984 27.4295 36.285 27.6724 36.8966 27.6724C37.5082 27.6724 38.0947 27.4295 38.5272 26.997C38.9597 26.5646 39.2026 25.978 39.2026 25.3664C39.2026 24.7548 38.9597 24.1683 38.5272 23.7358C38.0947 23.3033 37.5082 23.0604 36.8966 23.0604ZM11.5302 6.91811C10.9186 6.91811 10.332 7.16107 9.89957 7.59353C9.46711 8.026 9.22415 8.61255 9.22415 9.22415C9.22415 9.83575 9.46711 10.4223 9.89957 10.8548C10.332 11.2872 10.9186 11.5302 11.5302 11.5302C12.1418 11.5302 12.7283 11.2872 13.1608 10.8548C13.5933 10.4223 13.8362 9.83575 13.8362 9.22415C13.8362 8.61255 13.5933 8.026 13.1608 7.59353C12.7283 7.16107 12.1418 6.91811 11.5302 6.91811ZM23.0604 6.91811C22.4488 6.91811 21.8622 7.16107 21.4298 7.59353C20.9973 8.026 20.7543 8.61255 20.7543 9.22415C20.7543 9.83575 20.9973 10.4223 21.4298 10.8548C21.8622 11.2872 22.4488 11.5302 23.0604 11.5302C23.672 11.5302 24.2585 11.2872 24.691 10.8548C25.1235 10.4223 25.3664 9.83575 25.3664 9.22415C25.3664 8.61255 25.1235 8.026 24.691 7.59353C24.2585 7.16107 23.672 6.91811 23.0604 6.91811Z" fill="#1A1A2E"/>
</svg>
