<svg width="52" height="52" viewBox="0 0 52 52" fill="none" xmlns="http://www.w3.org/2000/svg">
<path d="M28.6301 0.400391C31.51 0.40807 32.9717 0.42343 34.2337 0.459269L34.7303 0.477189C35.3037 0.497668 35.8695 0.523268 36.5529 0.553987C39.2766 0.681984 41.1351 1.11205 42.7658 1.74436C44.4553 2.39458 45.8786 3.2752 47.3018 4.69597C48.604 5.97525 49.6113 7.52335 50.2534 9.23218C50.8857 10.8629 51.3157 12.7214 51.4437 15.4477C51.4744 16.1286 51.5 16.6944 51.5205 17.2704L51.5359 17.767C51.5743 19.0265 51.5896 20.4882 51.5948 23.3682L51.5973 25.2779V28.6314C51.6035 30.4986 51.5839 32.3658 51.5384 34.2325L51.5231 34.7292C51.5026 35.3051 51.477 35.8709 51.4463 36.5518C51.3183 39.2782 50.8831 41.1341 50.2534 42.7674C49.6113 44.4762 48.604 46.0243 47.3018 47.3036C46.0226 48.6058 44.4745 49.6131 42.7658 50.2552C41.1351 50.8875 39.2766 51.3176 36.5529 51.4456L34.7303 51.5224L34.2337 51.5377C32.9717 51.5736 31.51 51.5915 28.6301 51.5966L26.7205 51.5992H23.3696C21.5016 51.6057 19.6335 51.5861 17.7661 51.5403L17.2694 51.5249C16.6618 51.5019 16.0542 51.4754 15.4468 51.4456C12.7231 51.3176 10.8646 50.8875 9.23145 50.2552C7.52358 49.6128 5.97643 48.6055 4.69792 47.3036C3.3948 46.0245 2.38663 44.4764 1.74383 42.7674C1.11154 41.1367 0.681479 39.2782 0.553486 36.5518L0.47669 34.7292L0.463891 34.2325C0.416702 32.3659 0.395367 30.4986 0.399894 28.6314V23.3682C0.392808 21.5009 0.411582 19.6337 0.456211 17.767L0.47413 17.2704C0.494609 16.6944 0.520208 16.1286 0.550926 15.4477C0.67892 12.7214 1.10898 10.8654 1.74127 9.23218C2.38557 7.52265 3.39551 5.97449 4.70048 4.69597C5.97824 3.39436 7.5245 2.38709 9.23145 1.74436C10.8646 1.11205 12.7206 0.681984 15.4468 0.553987C16.1277 0.523268 16.696 0.497668 17.2694 0.477189L17.7661 0.461829C19.6327 0.416346 21.4999 0.396718 23.3671 0.40295L28.6301 0.400391ZM25.9986 13.2001C22.604 13.2001 19.3484 14.5486 16.9481 16.949C14.5477 19.3494 13.1992 22.6051 13.1992 25.9998C13.1992 29.3945 14.5477 32.6501 16.9481 35.0505C19.3484 37.4509 22.604 38.7995 25.9986 38.7995C29.3932 38.7995 32.6488 37.4509 35.0491 35.0505C37.4495 32.6501 38.798 29.3945 38.798 25.9998C38.798 22.6051 37.4495 19.3494 35.0491 16.949C32.6488 14.5486 29.3932 13.2001 25.9986 13.2001ZM25.9986 18.32C27.0071 18.3198 28.0058 18.5183 28.9376 18.9041C29.8694 19.2899 30.716 19.8554 31.4293 20.5684C32.1425 21.2814 32.7083 22.128 33.0944 23.0597C33.4805 23.9913 33.6793 24.99 33.6795 25.9985C33.6797 27.007 33.4812 28.0057 33.0954 28.9375C32.7096 29.8693 32.1441 30.7161 31.4311 31.4293C30.7181 32.1426 29.8716 32.7084 28.9399 33.0945C28.0083 33.4806 27.0097 33.6794 26.0012 33.6796C23.9644 33.6796 22.0111 32.8705 20.5709 31.4302C19.1306 29.99 18.3216 28.0366 18.3216 25.9998C18.3216 23.963 19.1306 22.0096 20.5709 20.5693C22.0111 19.1291 23.9644 18.32 26.0012 18.32M39.4405 9.36017C38.5918 9.36017 37.7779 9.69731 37.1779 10.2974C36.5778 10.8975 36.2406 11.7114 36.2406 12.5601C36.2406 13.4088 36.5778 14.2227 37.1779 14.8228C37.7779 15.4229 38.5918 15.76 39.4405 15.76C40.2891 15.76 41.103 15.4229 41.7031 14.8228C42.3032 14.2227 42.6403 13.4088 42.6403 12.5601C42.6403 11.7114 42.3032 10.8975 41.7031 10.2974C41.103 9.69731 40.2891 9.36017 39.4405 9.36017Z" fill="#1A1A2E"/>
</svg>
