<svg width="49" height="48" viewBox="0 0 49 48" fill="none" xmlns="http://www.w3.org/2000/svg">
<path d="M42.7878 0C44.2023 0 45.5588 0.561903 46.559 1.5621C47.5592 2.56229 48.1211 3.91885 48.1211 5.33333V42.6667C48.1211 44.0812 47.5592 45.4377 46.559 46.4379C45.5588 47.4381 44.2023 48 42.7878 48H5.45443C4.03994 48 2.68338 47.4381 1.68319 46.4379C0.682997 45.4377 0.121094 44.0812 0.121094 42.6667V5.33333C0.121094 3.91885 0.682997 2.56229 1.68319 1.5621C2.68338 0.561903 4.03994 0 5.45443 0H42.7878ZM41.4544 41.3333V27.2C41.4544 24.8944 40.5385 22.6832 38.9082 21.0529C37.2779 19.4226 35.0667 18.5067 32.7611 18.5067C30.4944 18.5067 27.8544 19.8933 26.5744 21.9733V19.0133H19.1344V41.3333H26.5744V28.1867C26.5744 26.1333 28.2278 24.4533 30.2811 24.4533C31.2712 24.4533 32.2208 24.8467 32.921 25.5468C33.6211 26.2469 34.0144 27.1965 34.0144 28.1867V41.3333H41.4544ZM10.4678 14.8267C11.6559 14.8267 12.7954 14.3547 13.6356 13.5145C14.4758 12.6743 14.9478 11.5348 14.9478 10.3467C14.9478 7.86667 12.9478 5.84 10.4678 5.84C9.27252 5.84 8.12623 6.31481 7.28107 7.15997C6.4359 8.00514 5.96109 9.15143 5.96109 10.3467C5.96109 12.8267 7.98776 14.8267 10.4678 14.8267ZM14.1744 41.3333V19.0133H6.78776V41.3333H14.1744Z" fill="#1A1A2E"/>
</svg>
