<svg width="371" height="512" viewBox="0 0 371 512" fill="none" xmlns="http://www.w3.org/2000/svg">
<g clip-path="url(#clip0_405_1207)">
<path d="M367.44 150.114L152.73 1.46869C149.899 -0.486958 146.157 -0.486958 143.327 1.46869L-71.3831 150.114C-73.6048 151.658 -74.9355 154.194 -74.9355 156.9V214.707H-116.226C-129.883 214.707 -141 225.824 -141 239.481V487.223C-141 491.041 -140.069 494.606 -138.516 497.836L-138.581 497.904L-138.367 498.118C-135.956 503.005 -132 506.953 -127.117 509.364L-126.903 509.578L-126.839 509.513C-123.609 511.065 -120.04 511.997 -116.226 511.997H280.161C283.976 511.997 287.544 511.065 290.774 509.513L290.839 509.578L291.052 509.364C295.944 506.944 299.891 502.997 302.302 498.118L302.516 497.904L302.452 497.836C304.004 494.606 304.935 491.041 304.935 487.223V445.932H346.226C359.883 445.932 371 434.819 371 421.158V156.9C371 154.194 369.669 151.658 367.44 150.114ZM304.935 368.194V259.416L354.484 209.868V417.743L304.935 368.194ZM81.9677 409.936L-112.286 231.223H276.222L81.9677 409.936ZM255.387 214.707H40.6774V140.384C40.6774 135.836 44.3871 132.126 48.9355 132.126H247.129C251.677 132.126 255.387 135.836 255.387 140.384V214.707ZM-58.4194 161.231L148.032 18.2993L354.484 161.231V186.517L304.621 236.376C303.077 224.199 292.762 214.707 280.161 214.707H271.903V140.384C271.903 126.727 260.786 115.61 247.129 115.61H48.9355C35.2782 115.61 24.1613 126.727 24.1613 140.384V214.707H-58.4194V161.231ZM-124.484 242.449L1.22177 358.102L-124.484 483.807V242.449ZM-112.806 495.481L13.3831 369.291L76.3669 427.239C77.9556 428.69 79.9597 429.416 81.9677 429.416C83.9758 429.416 85.9798 428.69 87.5564 427.239L150.544 369.291L276.742 495.481H-112.806ZM162.714 358.102L288.419 242.449V483.807L162.714 358.102ZM304.935 391.545L342.806 429.416H304.935V391.545Z" fill="black" fill-opacity="0.03"/>
<path d="M57.1953 148.641H156.292V165.157H57.1953V148.641Z" fill="black" fill-opacity="0.03"/>
<path d="M57.1953 181.674H238.873V198.19H57.1953V181.674Z" fill="black" fill-opacity="0.03"/>
</g>
<defs>
<clipPath id="clip0_405_1207">
<rect width="512" height="512" fill="white" transform="translate(-141)"/>
</clipPath>
</defs>
</svg>
