<svg width="49" height="48" viewBox="0 0 49 48" fill="none" xmlns="http://www.w3.org/2000/svg">
<path fill-rule="evenodd" clip-rule="evenodd" d="M5.66622 21.3333C5.66622 19.2322 6.08007 17.1516 6.88415 15.2104C7.68822 13.2692 8.86677 11.5054 10.3525 10.0196C11.8382 8.53389 13.6021 7.35534 15.5433 6.55126C17.4845 5.74718 19.5651 5.33333 21.6662 5.33333C23.7674 5.33333 25.8479 5.74718 27.7892 6.55126C29.7304 7.35534 31.4942 8.53389 32.9799 10.0196C34.4657 11.5054 35.6442 13.2692 36.4483 15.2104C37.2524 17.1516 37.6662 19.2322 37.6662 21.3333C37.6662 25.5768 35.9805 29.6465 32.9799 32.647C29.9793 35.6476 25.9097 37.3333 21.6662 37.3333C17.4228 37.3333 13.3531 35.6476 10.3525 32.647C7.35193 29.6465 5.66622 25.5768 5.66622 21.3333ZM21.6662 1.31777e-07C18.2712 0.000486203 14.9253 0.811248 11.9066 2.36491C8.88791 3.91856 6.28363 6.17024 4.31018 8.93281C2.33673 11.6954 1.05111 14.8891 0.560167 18.2484C0.0692256 21.6078 0.38714 25.0358 1.48749 28.2476C2.58784 31.4593 4.43884 34.3621 6.88667 36.7147C9.33449 39.0672 12.3084 40.8016 15.5614 41.7736C18.8143 42.7456 22.2522 42.9273 25.5894 42.3034C28.9267 41.6795 32.0668 40.2682 34.7489 38.1867L43.7809 47.2187C44.2838 47.7044 44.9574 47.9732 45.6566 47.9671C46.3558 47.9611 47.0246 47.6806 47.5191 47.1862C48.0135 46.6918 48.2939 46.0229 48.3 45.3237C48.3061 44.6245 48.0373 43.9509 47.5516 43.448L38.5196 34.416C40.9678 31.2626 42.4821 27.4854 42.8902 23.514C43.2983 19.5427 42.5838 15.5365 40.828 11.9511C39.0723 8.36561 36.3456 5.34477 32.9582 3.23207C29.5708 1.11936 25.6585 -0.000443521 21.6662 1.31777e-07ZM21.6662 32C24.4952 32 27.2083 30.8762 29.2087 28.8758C31.2091 26.8754 32.3329 24.1623 32.3329 21.3333C32.3329 18.5044 31.2091 15.7912 29.2087 13.7909C27.2083 11.7905 24.4952 10.6667 21.6662 10.6667C18.8372 10.6667 16.1241 11.7905 14.1237 13.7909C12.1234 15.7912 10.9996 18.5044 10.9996 21.3333C10.9996 24.1623 12.1234 26.8754 14.1237 28.8758C16.1241 30.8762 18.8372 32 21.6662 32Z" fill="url(#paint0_linear_389_804)"/>
<defs>
<linearGradient id="paint0_linear_389_804" x1="0.335938" y1="23.9836" x2="48.3001" y2="23.9836" gradientUnits="userSpaceOnUse">
<stop stop-color="#EFC66C"/>
<stop offset="1" stop-color="#D59F26"/>
</linearGradient>
</defs>
</svg>
