<svg width="64" height="45" viewBox="0 0 64 45" fill="none" xmlns="http://www.w3.org/2000/svg">
<path d="M7.99972 13.9998C7.99944 11.6793 8.57596 9.39507 9.67744 7.35265C10.7789 5.31022 12.3708 3.57362 14.3099 2.29903C16.2491 1.02444 18.4746 0.251844 20.7864 0.0507294C23.0981 -0.150385 25.4237 0.226288 27.5537 1.14687C29.6838 2.06746 31.5517 3.50308 32.9893 5.32461C34.427 7.14615 35.3893 9.29646 35.7897 11.5822C36.1901 13.8679 36.0161 16.2173 35.2834 18.419C34.5506 20.6208 33.282 22.6059 31.5917 24.1958C34.7785 25.7429 37.5455 28.0355 39.6581 30.8792C41.7706 33.7229 43.1666 37.0339 43.7277 40.5318C43.7894 40.921 43.7739 41.3186 43.682 41.7018C43.59 42.085 43.4235 42.4464 43.1919 42.7653C42.9603 43.0842 42.6682 43.3543 42.3322 43.5603C41.9962 43.7663 41.623 43.904 41.2337 43.9658C40.8445 44.0275 40.4469 44.0119 40.0637 43.92C39.6804 43.8281 39.3191 43.6616 39.0002 43.43C38.6813 43.1984 38.4112 42.9063 38.2052 42.5703C37.9992 42.2343 37.8614 41.861 37.7997 41.4718C37.1998 37.713 35.2794 34.2912 32.3836 31.821C29.4877 29.3507 25.8061 27.9937 21.9997 27.9937C18.1934 27.9937 14.5117 29.3507 11.6159 31.821C8.72 34.2912 6.79967 37.713 6.19972 41.4718C6.13774 41.861 5.99969 42.2342 5.79347 42.5701C5.58725 42.906 5.31689 43.198 4.99783 43.4294C4.67877 43.6608 4.31725 43.8271 3.93392 43.9188C3.55059 44.0105 3.15296 44.0258 2.76372 43.9638C2.37448 43.9018 2.00127 43.7637 1.66538 43.5575C1.32949 43.3513 1.03751 43.0809 0.806103 42.7619C0.574699 42.4428 0.408405 42.0813 0.316716 41.698C0.225027 41.3146 0.209737 40.917 0.271721 40.5278C0.830811 37.0302 2.2261 33.7194 4.33898 30.8767C6.45187 28.034 9.21987 25.7434 12.4077 24.1998C11.0157 22.8905 9.90652 21.31 9.14843 19.5558C8.39034 17.8016 7.99941 15.9108 7.99972 13.9998ZM43.9997 7.99977C46.3238 8.0014 48.5974 8.67762 50.5446 9.94637C52.4917 11.2151 54.0287 13.0218 54.969 15.1472C55.9093 17.2725 56.2124 19.6251 55.8415 21.9194C55.4706 24.2136 54.4417 26.3509 52.8797 28.0718C55.3158 29.2786 57.4803 30.9694 59.2409 33.0409C61.0015 35.1123 62.3213 37.521 63.1197 40.1198C63.2783 40.6241 63.3006 41.1613 63.1844 41.677C63.0682 42.1927 62.8176 42.6684 62.4581 43.056C62.0986 43.4435 61.6429 43.729 61.1374 43.8836C60.6319 44.0381 60.0945 44.0561 59.5797 43.9358C59.0651 43.8167 58.591 43.5639 58.2054 43.2029C57.8198 42.8419 57.5364 42.3855 57.3837 41.8798C56.6658 39.5612 55.359 37.4683 53.591 35.8054C51.8229 34.1425 49.6539 32.9664 47.2957 32.3918C46.6407 32.2336 46.058 31.8596 45.6414 31.3299C45.2249 30.8001 44.9989 30.1456 44.9997 29.4718V28.0638C44.9994 27.5052 45.1549 26.9577 45.4489 26.4828C45.7429 26.0079 46.1636 25.6245 46.6637 25.3758C47.8764 24.7748 48.8502 23.7815 49.4271 22.5572C50.0039 21.3329 50.1499 19.9495 49.8414 18.6317C49.5328 17.314 48.7877 16.1392 47.7272 15.2984C46.6668 14.4575 45.3531 13.9998 43.9997 13.9998C43.2041 13.9998 42.441 13.6837 41.8784 13.1211C41.3158 12.5585 40.9997 11.7954 40.9997 10.9998C40.9997 10.2041 41.3158 9.44106 41.8784 8.87845C42.441 8.31584 43.2041 7.99977 43.9997 7.99977ZM21.9997 5.99977C20.9344 5.97568 19.8749 6.16468 18.8836 6.55566C17.8923 6.94664 16.9891 7.53174 16.227 8.27659C15.465 9.02144 14.8594 9.91104 14.4458 10.8932C14.0323 11.8753 13.8191 12.9301 13.8189 13.9957C13.8186 15.0614 14.0312 16.1163 14.4443 17.0986C14.8573 18.0809 15.4625 18.9708 16.2242 19.7161C16.9859 20.4613 17.8888 21.0468 18.8799 21.4383C19.871 21.8298 20.9304 22.0193 21.9957 21.9958C24.086 21.9496 26.0751 21.0869 27.5372 19.5924C28.9993 18.098 29.8183 16.0905 29.8189 13.9997C29.8194 11.909 29.0014 9.90109 27.54 8.4059C26.0786 6.91071 24.0899 6.04704 21.9997 5.99977Z" fill="url(#paint0_linear_389_713)"/>
<defs>
<linearGradient id="paint0_linear_389_713" x1="0.234375" y1="22.0062" x2="63.2577" y2="22.0062" gradientUnits="userSpaceOnUse">
<stop stop-color="#EFC66C"/>
<stop offset="1" stop-color="#D59F26"/>
</linearGradient>
</defs>
</svg>
