<svg width="49" height="48" viewBox="0 0 49 48" fill="none" xmlns="http://www.w3.org/2000/svg">
<path d="M3.48109 3.36C0.121094 6.752 0.121094 12.176 0.121094 23.04V24.96C0.121094 35.808 0.121094 41.232 3.48109 44.64C6.87309 48 12.2971 48 23.1611 48H25.0811C35.9291 48 41.3531 48 44.7611 44.64C48.1211 41.248 48.1211 35.824 48.1211 24.96V23.04C48.1211 12.192 48.1211 6.768 44.7611 3.36C41.3691 6.35783e-07 35.9451 0 25.0811 0H23.1611C12.3131 0 6.88909 6.35783e-07 3.48109 3.36ZM8.21709 14.608H13.7211C13.8971 23.76 17.9291 27.632 21.1291 28.432V14.608H26.2971V22.496C29.4491 22.16 32.7771 18.56 33.8971 14.592H39.0491C38.6287 16.6459 37.7894 18.5911 36.5837 20.3062C35.3779 22.0212 33.8315 23.4693 32.0411 24.56C34.0396 25.5543 35.8045 26.9612 37.2193 28.6877C38.6342 30.4142 39.6668 32.4211 40.2491 34.576H34.5691C33.3531 30.784 30.3131 27.84 26.2971 27.44V34.576H25.6571C14.7131 34.576 8.47309 27.088 8.21709 14.608Z" fill="#1A1A2E"/>
</svg>
