<svg width="40" height="40" viewBox="0 0 40 40" fill="none" xmlns="http://www.w3.org/2000/svg">
<mask id="mask0_0_3977" style="mask-type:luminance" maskUnits="userSpaceOnUse" x="0" y="0" width="40" height="40">
<path d="M0 0H40V40H0V0Z" fill="white"/>
</mask>
<g mask="url(#mask0_0_3977)">
<path d="M23.7684 0.29051L22.5684 0.122089C18.962 -0.398632 15.2818 0.116521 11.9569 1.60749C8.63206 3.09846 5.7995 5.50382 3.78947 8.54314C1.65085 11.4484 0.375969 14.8984 0.111535 18.4962C-0.152898 22.094 0.603865 25.6933 2.29474 28.88C2.46778 29.1994 2.57552 29.55 2.61167 29.9115C2.64781 30.2729 2.61164 30.6379 2.50526 30.9852C1.64211 33.9537 0.842105 36.9431 0 40.08L1.05263 39.7642C3.89474 39.0063 6.73684 38.2484 9.57895 37.5537C10.1788 37.429 10.8024 37.4876 11.3684 37.7221C13.9183 38.9666 16.7049 39.6512 19.5412 39.7301C22.3774 39.809 25.1978 39.2802 27.8129 38.1794C30.428 37.0786 32.7774 35.4311 34.7034 33.3476C36.6294 31.2641 38.0874 28.7927 38.9797 26.0992C39.8719 23.4058 40.1777 20.5527 39.8766 17.7314C39.5754 14.91 38.6743 12.1858 37.2336 9.74137C35.7929 7.29698 33.846 5.18902 31.5236 3.55898C29.2012 1.92894 26.557 0.81452 23.7684 0.29051ZM29.0737 27.9116C28.3085 28.5966 27.3755 29.0666 26.3696 29.2737C25.3637 29.4808 24.3209 29.4176 23.3474 29.0905C18.9367 27.8467 15.11 25.0792 12.5474 21.28C11.5688 19.936 10.7823 18.4622 10.2105 16.901C9.90074 15.9953 9.84488 15.022 10.049 14.0868C10.2531 13.1516 10.7094 12.2901 11.3684 11.5958C11.6892 11.1863 12.1259 10.883 12.6216 10.7253C13.1173 10.5676 13.6489 10.5628 14.1474 10.7116C14.5684 10.8168 14.8632 11.4274 15.2421 11.8905C15.5509 12.7607 15.9088 13.6098 16.3158 14.4379C16.6241 14.86 16.7528 15.3869 16.6739 15.9036C16.595 16.4204 16.3149 16.8849 15.8947 17.1958C14.9474 18.0379 15.0947 18.7326 15.7684 19.68C17.257 21.8263 19.3123 23.5172 21.7053 24.5642C22.379 24.8589 22.8842 24.9221 23.3263 24.2274C23.5158 23.9537 23.7684 23.7221 23.979 23.4695C25.2 21.9326 24.8211 21.9537 26.7579 22.7958C27.3754 23.0554 27.9719 23.3572 28.5474 23.701C29.1158 24.0379 29.979 24.3958 30.1053 24.901C30.2268 25.4492 30.1948 26.0202 30.0128 26.5514C29.8308 27.0825 29.5059 27.5532 29.0737 27.9116Z" fill="white"/>
</g>
</svg>
