<svg width="31" height="43" viewBox="0 0 31 43" fill="none" xmlns="http://www.w3.org/2000/svg">
<path d="M18.7207 34L16.7871 27.8477H7.875L5.94141 34H0.492188L9.29883 8.63477H15.5391L24.3633 34H18.7207ZM12.2695 13.4863L9.01758 23.875H15.6445L12.3926 13.4863H12.2695Z" fill="#D5D6DE"/>
<path d="M19.1719 19.9082H24.9043C26.3561 19.9082 27.5312 20.3509 28.4297 21.2363C29.3346 22.1217 29.7871 23.2871 29.7871 24.7324C29.7871 26.1712 29.3216 27.3366 28.3906 28.2285C27.4596 29.1139 26.2487 29.5566 24.7578 29.5566H22.1211V34H19.1719V19.9082ZM22.1211 22.2422V27.252H24.1133C24.9596 27.252 25.6172 27.0339 26.0859 26.5977C26.5547 26.1615 26.7891 25.543 26.7891 24.7422C26.7891 23.9414 26.5547 23.3262 26.0859 22.8965C25.6237 22.4603 24.9694 22.2422 24.123 22.2422H22.1211Z" fill="#3356F6"/>
</svg>
