<svg width="1214" height="576" viewBox="0 0 1214 576" fill="none" xmlns="http://www.w3.org/2000/svg">
<path d="M84.2031 120.8C84.2031 134.227 80.7831 143.98 73.9431 150.06C67.1031 155.887 56.5898 158.8 42.4031 158.8H38.6031V269H0.603101V2.99998H42.7831C56.7164 2.99998 67.1031 6.03998 73.9431 12.12C80.7831 17.9466 84.2031 27.5733 84.2031 41V120.8ZM46.2031 42.9C46.2031 39.1 44.9364 37.2 42.4031 37.2H38.6031V124.6H42.4031C44.9364 124.6 46.2031 122.7 46.2031 118.9V42.9ZM183.27 269H141.47L139.19 205.54H128.55L126.27 269H88.2703L109.17 2.99998H162.37L183.27 269ZM138.05 171.34L135.39 90.78L134.25 44.8H133.49L132.35 90.78L129.69 171.34H138.05ZM240.27 156.9C240.27 153.1 239.004 151.2 236.47 151.2H232.67V269H194.67V2.99998H236.85C250.784 2.99998 261.17 6.03998 268.01 12.12C274.85 17.9466 278.27 27.5733 278.27 41V94.96C278.27 100.533 278.144 105.473 277.89 109.78C277.637 114.087 276.877 117.887 275.61 121.18C274.597 124.22 272.95 126.753 270.67 128.78C268.644 130.807 265.857 132.453 262.31 133.72V134.48C269.657 136.76 274.09 140.94 275.61 147.02C277.384 153.1 278.27 161.84 278.27 173.24V234.04C278.27 238.347 278.27 242.02 278.27 245.06C278.524 247.847 278.777 250.507 279.03 253.04C279.284 255.573 279.664 257.98 280.17 260.26C280.93 262.54 281.817 265.2 282.83 268.24V269H243.69C242.424 263.933 241.537 259.12 241.03 254.56C240.524 249.747 240.27 243.033 240.27 234.42V156.9ZM240.27 42.9C240.27 39.1 239.004 37.2 236.47 37.2H232.67V117H236.47C239.004 117 240.27 115.1 240.27 111.3V42.9ZM367.659 37.2H348.659V269H310.659V37.2H291.659V2.99998H367.659V37.2ZM483.545 269H436.045L409.825 63.8H409.065L415.145 149.3L417.045 269H380.945V2.99998H428.445L454.665 208.2H455.425L449.345 122.7L447.445 2.99998H483.545V269ZM552.33 37.2H537.13V115.48H550.43V149.68H537.13V234.8H554.23V269H499.13V2.99998H552.33V37.2ZM613.19 156.9C613.19 153.1 611.923 151.2 609.39 151.2H605.59V269H567.59V2.99998H609.77C623.703 2.99998 634.09 6.03998 640.93 12.12C647.77 17.9466 651.19 27.5733 651.19 41V94.96C651.19 100.533 651.063 105.473 650.81 109.78C650.556 114.087 649.796 117.887 648.53 121.18C647.516 124.22 645.87 126.753 643.59 128.78C641.563 130.807 638.776 132.453 635.23 133.72V134.48C642.576 136.76 647.01 140.94 648.53 147.02C650.303 153.1 651.19 161.84 651.19 173.24V234.04C651.19 238.347 651.19 242.02 651.19 245.06C651.443 247.847 651.696 250.507 651.95 253.04C652.203 255.573 652.583 257.98 653.09 260.26C653.85 262.54 654.736 265.2 655.75 268.24V269H616.61C615.343 263.933 614.456 259.12 613.95 254.56C613.443 249.747 613.19 243.033 613.19 234.42V156.9ZM613.19 42.9C613.19 39.1 611.923 37.2 609.39 37.2H605.59V117H609.39C611.923 117 613.19 115.1 613.19 111.3V42.9ZM749.319 229.48C749.319 242.907 745.392 253.293 737.539 260.64C729.686 267.733 719.679 271.28 707.519 271.28C695.359 271.28 685.352 267.733 677.499 260.64C669.646 253.293 665.719 242.907 665.719 229.48V175.52H703.719V231.38C703.719 235.18 704.986 237.08 707.519 237.08C710.052 237.08 711.319 235.18 711.319 231.38V187.3C711.319 179.193 709.166 171.213 704.859 163.36C700.806 155.253 696.246 146.893 691.179 138.28C685.099 128.4 679.272 118.14 673.699 107.5C668.379 96.6067 665.719 85.08 665.719 72.92V42.52C665.719 29.3467 669.646 19.0867 677.499 11.74C685.606 4.39332 695.739 0.719989 707.899 0.719989C720.059 0.719989 729.939 4.39332 737.539 11.74C745.392 18.8333 749.319 29.0933 749.319 42.52V84.7H711.319V40.62C711.319 36.82 710.052 34.92 707.519 34.92C704.986 34.92 703.719 36.82 703.719 40.62V72.92C703.719 81.0267 705.746 89.1333 709.799 97.24C714.106 105.093 718.919 113.327 724.239 121.94C730.319 131.82 736.019 142.207 741.339 153.1C746.659 163.74 749.319 175.14 749.319 187.3V229.48ZM843.624 269H805.624V2.99998H843.624V269ZM961.469 269H913.969L887.749 63.8H886.989L893.069 149.3L894.969 269H858.869V2.99998H906.369L932.589 208.2H933.349L927.269 122.7L925.369 2.99998H961.469V269ZM1101.64 229.48C1101.64 242.907 1097.71 253.293 1089.86 260.64C1082 267.733 1072 271.28 1059.84 271.28C1047.68 271.28 1037.67 267.733 1029.82 260.64C1021.96 253.293 1018.04 242.907 1018.04 229.48V175.52H1056.04V231.38C1056.04 235.18 1057.3 237.08 1059.84 237.08C1062.37 237.08 1063.64 235.18 1063.64 231.38V187.3C1063.64 179.193 1061.48 171.213 1057.18 163.36C1053.12 155.253 1048.56 146.893 1043.5 138.28C1037.42 128.4 1031.59 118.14 1026.02 107.5C1020.7 96.6067 1018.04 85.08 1018.04 72.92V42.52C1018.04 29.3467 1021.96 19.0867 1029.82 11.74C1037.92 4.39332 1048.06 0.719989 1060.22 0.719989C1072.38 0.719989 1082.26 4.39332 1089.86 11.74C1097.71 18.8333 1101.64 29.0933 1101.64 42.52V84.7H1063.64V40.62C1063.64 36.82 1062.37 34.92 1059.84 34.92C1057.3 34.92 1056.04 36.82 1056.04 40.62V72.92C1056.04 81.0267 1058.06 89.1333 1062.12 97.24C1066.42 105.093 1071.24 113.327 1076.56 121.94C1082.64 131.82 1088.34 142.207 1093.66 153.1C1098.98 163.74 1101.64 175.14 1101.64 187.3V229.48ZM1207.4 269H1165.6L1163.32 205.54H1152.68L1150.4 269H1112.4L1133.3 2.99998H1186.5L1207.4 269ZM1162.18 171.34L1159.52 90.78L1158.38 44.8H1157.62L1156.48 90.78L1153.82 171.34H1162.18ZM97.2211 573H59.2211V307H97.2211V573ZM215.066 573H167.566L141.346 367.8H140.586L146.666 453.3L148.566 573H112.466V307H159.966L186.186 512.2H186.946L180.866 426.7L178.966 307H215.066V573ZM304.752 341.2H285.752V573H247.752V341.2H228.752V307H304.752V341.2ZM371.237 341.2H356.037V419.48H369.337V453.68H356.037V538.8H373.137V573H318.037V307H371.237V341.2ZM432.096 460.9C432.096 457.1 430.83 455.2 428.296 455.2H424.496V573H386.496V307H428.676C442.61 307 452.996 310.04 459.836 316.12C466.676 321.947 470.096 331.573 470.096 345V398.96C470.096 404.533 469.97 409.473 469.716 413.78C469.463 418.087 468.703 421.887 467.436 425.18C466.423 428.22 464.776 430.753 462.496 432.78C460.47 434.807 457.683 436.453 454.136 437.72V438.48C461.483 440.76 465.916 444.94 467.436 451.02C469.21 457.1 470.096 465.84 470.096 477.24V538.04C470.096 542.347 470.096 546.02 470.096 549.06C470.35 551.847 470.603 554.507 470.856 557.04C471.11 559.573 471.49 561.98 471.996 564.26C472.756 566.54 473.643 569.2 474.656 572.24V573H435.516C434.25 567.933 433.363 563.12 432.856 558.56C432.35 553.747 432.096 547.033 432.096 538.42V460.9ZM432.096 346.9C432.096 343.1 430.83 341.2 428.296 341.2H424.496V421H428.296C430.83 421 432.096 419.1 432.096 415.3V346.9ZM587.985 573H540.485L514.265 367.8H513.505L519.585 453.3L521.485 573H485.385V307H532.885L559.105 512.2H559.865L553.785 426.7L551.885 307H587.985V573ZM694.771 573H652.971L650.691 509.54H640.051L637.771 573H599.771L620.671 307H673.871L694.771 573ZM649.551 475.34L646.891 394.78L645.751 348.8H644.991L643.851 394.78L641.191 475.34H649.551ZM772.849 341.2H753.849V573H715.849V341.2H696.849V307H772.849V341.2ZM824.134 573H786.134V307H824.134V573ZM922.979 533.48C922.979 546.907 919.052 557.293 911.199 564.64C903.346 571.733 893.339 575.28 881.179 575.28C869.019 575.28 859.012 571.733 851.159 564.64C843.306 557.293 839.379 546.907 839.379 533.48V346.52C839.379 333.347 843.306 323.087 851.159 315.74C859.266 308.393 869.399 304.72 881.559 304.72C893.719 304.72 903.599 308.393 911.199 315.74C919.052 322.833 922.979 333.093 922.979 346.52V533.48ZM884.979 344.62C884.979 340.82 883.712 338.92 881.179 338.92C878.646 338.92 877.379 340.82 877.379 344.62V535.38C877.379 539.18 878.646 541.08 881.179 541.08C883.712 541.08 884.979 539.18 884.979 535.38V344.62ZM1040.87 573H993.368L967.148 367.8H966.388L972.468 453.3L974.368 573H938.268V307H985.768L1011.99 512.2H1012.75L1006.67 426.7L1004.77 307H1040.87V573ZM1147.65 573H1105.85L1103.57 509.54H1092.93L1090.65 573H1052.65L1073.55 307H1126.75L1147.65 573ZM1102.43 475.34L1099.77 394.78L1098.63 348.8H1097.87L1096.73 394.78L1094.07 475.34H1102.43ZM1197.05 307V538.8H1213.01V573H1159.05V307H1197.05Z" fill="#B22222" fill-opacity="0.15"/>
</svg>
