<svg width="1155" height="576" viewBox="0 0 1155 576" fill="none" xmlns="http://www.w3.org/2000/svg">
<path d="M214.298 40.62C214.298 36.82 213.031 34.92 210.498 34.92C207.964 34.92 206.698 36.82 206.698 40.62V231.38C206.698 235.18 207.964 237.08 210.498 237.08C213.031 237.08 214.298 235.18 214.298 231.38V156.52H252.298V229.48C252.298 242.907 248.371 253.293 240.518 260.64C232.664 267.733 222.658 271.28 210.498 271.28C198.338 271.28 188.331 267.733 180.478 260.64C172.624 253.293 168.698 242.907 168.698 229.48V42.52C168.698 29.3467 172.624 19.0867 180.478 11.74C188.584 4.39332 198.718 0.719989 210.878 0.719989C223.038 0.719989 232.918 4.39332 240.518 11.74C248.371 18.8333 252.298 29.0933 252.298 42.52V103.7H214.298V40.62ZM358.787 269H316.987L314.707 205.54H304.067L301.787 269H263.787L284.687 2.99998H337.887L358.787 269ZM313.567 171.34L310.907 90.78L309.767 44.8H309.007L307.867 90.78L305.207 171.34H313.567ZM415.787 156.9C415.787 153.1 414.52 151.2 411.987 151.2H408.187V269H370.187V2.99998H412.367C426.3 2.99998 436.687 6.03998 443.527 12.12C450.367 17.9466 453.787 27.5733 453.787 41V94.96C453.787 100.533 453.66 105.473 453.407 109.78C453.153 114.087 452.393 117.887 451.127 121.18C450.113 124.22 448.467 126.753 446.187 128.78C444.16 130.807 441.373 132.453 437.827 133.72V134.48C445.173 136.76 449.607 140.94 451.127 147.02C452.9 153.1 453.787 161.84 453.787 173.24V234.04C453.787 238.347 453.787 242.02 453.787 245.06C454.04 247.847 454.293 250.507 454.547 253.04C454.8 255.573 455.18 257.98 455.687 260.26C456.447 262.54 457.333 265.2 458.347 268.24V269H419.207C417.94 263.933 417.053 259.12 416.547 254.56C416.04 249.747 415.787 243.033 415.787 234.42V156.9ZM415.787 42.9C415.787 39.1 414.52 37.2 411.987 37.2H408.187V117H411.987C414.52 117 415.787 115.1 415.787 111.3V42.9ZM522.276 37.2H507.076V115.48H520.376V149.68H507.076V234.8H524.176V269H469.076V2.99998H522.276V37.2ZM590.735 37.2H575.535V115.48H588.835V149.68H575.535V234.8H592.635V269H537.535V2.99998H590.735V37.2ZM651.594 156.9C651.594 153.1 650.328 151.2 647.794 151.2H643.994V269H605.994V2.99998H648.174C662.108 2.99998 672.494 6.03998 679.334 12.12C686.174 17.9466 689.594 27.5733 689.594 41V94.96C689.594 100.533 689.468 105.473 689.214 109.78C688.961 114.087 688.201 117.887 686.934 121.18C685.921 124.22 684.274 126.753 681.994 128.78C679.968 130.807 677.181 132.453 673.634 133.72V134.48C680.981 136.76 685.414 140.94 686.934 147.02C688.708 153.1 689.594 161.84 689.594 173.24V234.04C689.594 238.347 689.594 242.02 689.594 245.06C689.848 247.847 690.101 250.507 690.354 253.04C690.608 255.573 690.988 257.98 691.494 260.26C692.254 262.54 693.141 265.2 694.154 268.24V269H655.014C653.748 263.933 652.861 259.12 652.354 254.56C651.848 249.747 651.594 243.033 651.594 234.42V156.9ZM651.594 42.9C651.594 39.1 650.328 37.2 647.794 37.2H643.994V117H647.794C650.328 117 651.594 115.1 651.594 111.3V42.9ZM784.624 269H746.624V2.99998H784.624V269ZM902.469 269H854.969L828.749 63.8H827.989L834.069 149.3L835.969 269H799.869V2.99998H847.369L873.589 208.2H874.349L868.269 122.7L866.369 2.99998H902.469V269ZM1042.64 229.48C1042.64 242.907 1038.71 253.293 1030.86 260.64C1023 267.733 1013 271.28 1000.84 271.28C988.675 271.28 978.669 267.733 970.815 260.64C962.962 253.293 959.035 242.907 959.035 229.48V175.52H997.035V231.38C997.035 235.18 998.302 237.08 1000.84 237.08C1003.37 237.08 1004.64 235.18 1004.64 231.38V187.3C1004.64 179.193 1002.48 171.213 998.175 163.36C994.122 155.253 989.562 146.893 984.495 138.28C978.415 128.4 972.589 118.14 967.015 107.5C961.695 96.6067 959.035 85.08 959.035 72.92V42.52C959.035 29.3467 962.962 19.0867 970.815 11.74C978.922 4.39332 989.055 0.719989 1001.22 0.719989C1013.38 0.719989 1023.26 4.39332 1030.86 11.74C1038.71 18.8333 1042.64 29.0933 1042.64 42.52V84.7H1004.64V40.62C1004.64 36.82 1003.37 34.92 1000.84 34.92C998.302 34.92 997.035 36.82 997.035 40.62V72.92C997.035 81.0267 999.062 89.1333 1003.12 97.24C1007.42 105.093 1012.24 113.327 1017.56 121.94C1023.64 131.82 1029.34 142.207 1034.66 153.1C1039.98 163.74 1042.64 175.14 1042.64 187.3V229.48ZM1148.4 269H1106.6L1104.32 205.54H1093.68L1091.4 269H1053.4L1074.3 2.99998H1127.5L1148.4 269ZM1103.18 171.34L1100.52 90.78L1099.38 44.8H1098.62L1097.48 90.78L1094.82 171.34H1103.18ZM38.2211 573H0.221143V307H38.2211V573ZM156.066 573H108.566L82.3457 367.8H81.5857L87.6657 453.3L89.5657 573H53.4657V307H100.966L127.186 512.2H127.946L121.866 426.7L119.966 307H156.066V573ZM245.752 341.2H226.752V573H188.752V341.2H169.752V307H245.752V341.2ZM312.237 341.2H297.037V419.48H310.337V453.68H297.037V538.8H314.137V573H259.037V307H312.237V341.2ZM373.096 460.9C373.096 457.1 371.83 455.2 369.296 455.2H365.496V573H327.496V307H369.676C383.61 307 393.996 310.04 400.836 316.12C407.676 321.947 411.096 331.573 411.096 345V398.96C411.096 404.533 410.97 409.473 410.716 413.78C410.463 418.087 409.703 421.887 408.436 425.18C407.423 428.22 405.776 430.753 403.496 432.78C401.47 434.807 398.683 436.453 395.136 437.72V438.48C402.483 440.76 406.916 444.94 408.436 451.02C410.21 457.1 411.096 465.84 411.096 477.24V538.04C411.096 542.347 411.096 546.02 411.096 549.06C411.35 551.847 411.603 554.507 411.856 557.04C412.11 559.573 412.49 561.98 412.996 564.26C413.756 566.54 414.643 569.2 415.656 572.24V573H376.516C375.25 567.933 374.363 563.12 373.856 558.56C373.35 553.747 373.096 547.033 373.096 538.42V460.9ZM373.096 346.9C373.096 343.1 371.83 341.2 369.296 341.2H365.496V421H369.296C371.83 421 373.096 419.1 373.096 415.3V346.9ZM528.985 573H481.485L455.265 367.8H454.505L460.585 453.3L462.485 573H426.385V307H473.885L500.105 512.2H500.865L494.785 426.7L492.885 307H528.985V573ZM635.771 573H593.971L591.691 509.54H581.051L578.771 573H540.771L561.671 307H614.871L635.771 573ZM590.551 475.34L587.891 394.78L586.751 348.8H585.991L584.851 394.78L582.191 475.34H590.551ZM713.849 341.2H694.849V573H656.849V341.2H637.849V307H713.849V341.2ZM765.134 573H727.134V307H765.134V573ZM863.979 533.48C863.979 546.907 860.052 557.293 852.199 564.64C844.346 571.733 834.339 575.28 822.179 575.28C810.019 575.28 800.012 571.733 792.159 564.64C784.306 557.293 780.379 546.907 780.379 533.48V346.52C780.379 333.347 784.306 323.087 792.159 315.74C800.266 308.393 810.399 304.72 822.559 304.72C834.719 304.72 844.599 308.393 852.199 315.74C860.052 322.833 863.979 333.093 863.979 346.52V533.48ZM825.979 344.62C825.979 340.82 824.712 338.92 822.179 338.92C819.646 338.92 818.379 340.82 818.379 344.62V535.38C818.379 539.18 819.646 541.08 822.179 541.08C824.712 541.08 825.979 539.18 825.979 535.38V344.62ZM981.868 573H934.368L908.148 367.8H907.388L913.468 453.3L915.368 573H879.268V307H926.768L952.988 512.2H953.748L947.668 426.7L945.768 307H981.868V573ZM1088.65 573H1046.85L1044.57 509.54H1033.93L1031.65 573H993.654L1014.55 307H1067.75L1088.65 573ZM1043.43 475.34L1040.77 394.78L1039.63 348.8H1038.87L1037.73 394.78L1035.07 475.34H1043.43ZM1138.05 307V538.8H1154.01V573H1100.05V307H1138.05Z" fill="#B22222" fill-opacity="0.15"/>
</svg>
