<svg width="1440" height="1080" viewBox="0 0 1440 1080" fill="none" xmlns="http://www.w3.org/2000/svg">
<path d="M0 0H283V1080H0V0Z" fill="#A7CCFD" fill-opacity="0.01"/>
<path d="M282.5 0V1080H283.5V0H282.5ZM0.5 1080V0H-0.5V1080H0.5Z" fill="white" fill-opacity="0.05"/>
<path d="M906.5 0V1080H907.5V0H906.5ZM408.5 1080V0H407.5V1080H408.5Z" fill="white" fill-opacity="0.05"/>
<path d="M627 0H1042V1080H627V0Z" fill="#A7CCFD" fill-opacity="0.01"/>
<path d="M1041.5 0V1080H1042.5V0H1041.5ZM627.5 1080V0H626.5V1080H627.5Z" fill="white" fill-opacity="0.05"/>
<path d="M1439.5 0V1080H1440.5V0H1439.5ZM962.5 1080V0H961.5V1080H962.5Z" fill="white" fill-opacity="0.05"/>
</svg>
