<svg width="30" height="44" viewBox="0 0 30 44" fill="none" xmlns="http://www.w3.org/2000/svg">
<path fill-rule="evenodd" clip-rule="evenodd" d="M27.7185 33.3079V43.2023H29.3224V30.5049C28.9424 31.5202 28.4007 32.4669 27.7185 33.3079ZM24.9468 35.8637V43.2023H26.5506V34.7931C26.0511 35.2003 25.514 35.5588 24.9468 35.8637ZM22.175 36.8689V43.2023H23.7789V36.4216C23.2577 36.6156 22.7212 36.7652 22.175 36.8689ZM20.2895 37.0402C19.9906 37.0402 19.6946 37.0267 19.4033 37.0007V43.2023H21.0071V37.0132C20.7695 37.0306 20.531 37.0402 20.2895 37.0402ZM16.6316 36.3668V43.2061H18.2354V36.8391C17.6882 36.7269 17.1516 36.5676 16.6316 36.363V36.3668ZM13.8598 34.6354V43.2071H15.4637V35.7733C14.8918 35.4481 14.3544 35.0652 13.8598 34.6306V34.6354ZM11.1322 30.4568H11.0881V43.2023H12.691V33.3262C12.0144 32.4627 11.4875 31.4911 11.1322 30.452V30.4568ZM9.88667 11.0201L7.67637 14.8678L7.7396 43.2109H9.95756L9.88667 11.0201ZM6.47493 0.535156L4.27134 7.62165L4.35181 43.208H6.56978L6.47493 0.535156ZM0.921875 25.9482V43.2023H3.13984V22.1948V22.089L0.921875 25.9482ZM15.3976 17.4381L16.4783 19.6678H29.3224V17.4381H15.3976ZM24.3288 26.3388H11.023V28.5685H25.4479L24.3288 26.3388ZM27.7339 22.0534L27.6467 21.9062H13.8081C13.4042 20.8723 13.2321 19.7617 13.3041 18.6535C13.3762 17.5452 13.6905 16.4665 14.2249 15.494C14.8103 14.4296 15.6697 13.5425 16.7133 12.9254C17.7568 12.3083 18.9462 11.9839 20.1573 11.9859C21.5118 11.9907 22.8398 12.3627 24.0011 13.0627C25.1623 13.7626 26.1137 14.7645 26.7547 15.9625L28.347 15.1035C27.191 12.9414 25.2355 11.3217 22.9017 10.593C20.5678 9.86439 18.0423 10.0851 15.8689 11.2077C15.8488 11.2202 15.8249 11.2308 15.8057 11.2433C15.7865 11.2558 15.7492 11.2798 15.7176 11.2972C13.6699 12.6361 12.2273 14.7284 11.7 17.1241C11.1727 19.5197 11.6029 22.0275 12.8979 24.1081L12.9161 24.135H26.7269C27.2413 25.5175 27.3413 27.0209 27.0148 28.4598C26.6883 29.8987 25.9494 31.2102 24.8893 32.2325C24.2639 32.8324 23.5033 33.2717 22.6723 33.5128C20.973 34.0025 19.1563 33.8755 17.5409 33.1543C15.9255 32.4331 14.6148 31.1637 13.8388 29.5689L12.2148 30.3663C12.9774 31.9339 14.1609 33.2564 15.6319 34.1849C17.1029 35.1134 18.803 35.6109 20.5406 35.6213H20.6038C21.9775 35.6293 23.336 35.3321 24.5818 34.7508C26.6541 33.4664 28.144 31.4191 28.733 29.0465C29.322 26.6739 28.9634 24.1641 27.7339 22.0534Z" fill="#DFB453"/>
</svg>
