<svg width="1155" height="576" viewBox="0 0 1155 576" fill="none" xmlns="http://www.w3.org/2000/svg">
<path d="M368.138 2.99998V269H320.638L294.418 63.8H293.658L299.738 149.3L301.638 269H265.538V2.99998H313.038L339.258 208.2H340.018L333.938 122.7L332.038 2.99998H368.138ZM436.924 2.99998V37.2H421.724V115.48H435.024V149.68H421.724V234.8H438.824V269H383.724V2.99998H436.924ZM596.204 2.99998L582.144 269H530.844L524.384 86.98L523.624 45.18H522.864L522.104 86.98L515.644 269H464.344L448.384 2.99998H492.084L492.464 181.22V227.2H493.224L494.744 181.22L503.104 2.99998H543.384L551.744 181.22L553.264 227.2H554.024L554.404 181.22V2.99998H596.204ZM690.319 187.3V229.48C690.319 256.08 672.839 271.28 648.519 271.28C624.579 271.28 606.719 256.08 606.719 229.48V175.52H644.719V231.38C644.719 235.18 645.859 237.08 648.519 237.08C651.179 237.08 652.319 235.18 652.319 231.38V187.3C652.319 171.34 642.439 155.38 632.179 138.28C620.019 118.52 606.719 97.24 606.719 72.92V42.52C606.719 16.3 624.959 0.719989 648.899 0.719989C672.839 0.719989 690.319 15.92 690.319 42.52V84.7H652.319V40.62C652.319 36.82 651.179 34.92 648.519 34.92C645.859 34.92 644.719 36.82 644.719 40.62V72.92C644.719 88.88 654.599 104.84 665.239 121.94C677.399 141.7 690.319 162.98 690.319 187.3ZM784.624 2.99998V269H746.624V2.99998H784.624ZM902.469 2.99998V269H854.969L828.749 63.8H827.989L834.069 149.3L835.969 269H799.869V2.99998H847.369L873.589 208.2H874.349L868.269 122.7L866.369 2.99998H902.469ZM1042.64 187.3V229.48C1042.64 256.08 1025.16 271.28 1000.84 271.28C976.895 271.28 959.035 256.08 959.035 229.48V175.52H997.035V231.38C997.035 235.18 998.175 237.08 1000.84 237.08C1003.5 237.08 1004.64 235.18 1004.64 231.38V187.3C1004.64 171.34 994.755 155.38 984.495 138.28C972.335 118.52 959.035 97.24 959.035 72.92V42.52C959.035 16.3 977.275 0.719989 1001.22 0.719989C1025.16 0.719989 1042.64 15.92 1042.64 42.52V84.7H1004.64V40.62C1004.64 36.82 1003.5 34.92 1000.84 34.92C998.175 34.92 997.035 36.82 997.035 40.62V72.92C997.035 88.88 1006.92 104.84 1017.56 121.94C1029.72 141.7 1042.64 162.98 1042.64 187.3ZM1127.5 2.99998L1148.4 269H1106.6L1104.32 205.54H1093.68L1091.4 269H1053.4L1074.3 2.99998H1127.5ZM1094.82 171.34H1103.18L1100.52 90.78L1099.38 44.8H1098.62L1097.48 90.78L1094.82 171.34ZM38.2211 307V573H0.221143V307H38.2211ZM156.066 307V573H108.566L82.3457 367.8H81.5857L87.6657 453.3L89.5657 573H53.4657V307H100.966L127.186 512.2H127.946L121.866 426.7L119.966 307H156.066ZM245.752 307V341.2H226.752V573H188.752V341.2H169.752V307H245.752ZM312.237 307V341.2H297.037V419.48H310.337V453.68H297.037V538.8H314.137V573H259.037V307H312.237ZM373.096 460.9C373.096 457.1 371.956 455.2 369.296 455.2H365.496V573H327.496V307H369.676C397.416 307 411.096 318.4 411.096 345V398.96C411.096 421.76 409.576 432.78 395.136 437.72V438.48C409.576 443.04 411.096 454.44 411.096 477.24V538.04C411.096 555.14 411.476 560.46 415.656 572.24V573H376.516C373.856 562.74 373.096 555.9 373.096 538.42V460.9ZM373.096 346.9C373.096 343.1 371.956 341.2 369.296 341.2H365.496V421H369.296C371.956 421 373.096 419.1 373.096 415.3V346.9ZM528.985 307V573H481.485L455.265 367.8H454.505L460.585 453.3L462.485 573H426.385V307H473.885L500.105 512.2H500.865L494.785 426.7L492.885 307H528.985ZM614.871 307L635.771 573H593.971L591.691 509.54H581.051L578.771 573H540.771L561.671 307H614.871ZM582.191 475.34H590.551L587.891 394.78L586.751 348.8H585.991L584.851 394.78L582.191 475.34ZM713.849 307V341.2H694.849V573H656.849V341.2H637.849V307H713.849ZM765.134 307V573H727.134V307H765.134ZM863.979 346.52V533.48C863.979 560.08 846.499 575.28 822.179 575.28C797.859 575.28 780.379 560.08 780.379 533.48V346.52C780.379 320.3 798.619 304.72 822.559 304.72C846.499 304.72 863.979 319.92 863.979 346.52ZM825.979 344.62C825.979 340.82 824.839 338.92 822.179 338.92C819.519 338.92 818.379 340.82 818.379 344.62V535.38C818.379 539.18 819.519 541.08 822.179 541.08C824.839 541.08 825.979 539.18 825.979 535.38V344.62ZM981.868 307V573H934.368L908.148 367.8H907.388L913.468 453.3L915.368 573H879.268V307H926.768L952.988 512.2H953.748L947.668 426.7L945.768 307H981.868ZM1067.75 307L1088.65 573H1046.85L1044.57 509.54H1033.93L1031.65 573H993.654L1014.55 307H1067.75ZM1035.07 475.34H1043.43L1040.77 394.78L1039.63 348.8H1038.87L1037.73 394.78L1035.07 475.34ZM1100.05 307H1138.05V538.8H1154.01V573H1100.05V307Z" fill="#B22222" fill-opacity="0.15"/>
</svg>
