<svg width="1274" height="576" viewBox="0 0 1274 576" fill="none" xmlns="http://www.w3.org/2000/svg">
<path d="M514.816 42.52V229.48C514.816 256.08 497.336 271.28 473.016 271.28C448.696 271.28 431.216 256.08 431.216 229.48V42.52C431.216 16.3 449.456 0.719989 473.396 0.719989C497.336 0.719989 514.816 15.92 514.816 42.52ZM476.816 40.62C476.816 36.82 475.676 34.92 473.016 34.92C470.356 34.92 469.216 36.82 469.216 40.62V231.38C469.216 235.18 470.356 237.08 473.016 237.08C475.676 237.08 476.816 235.18 476.816 231.38V40.62ZM613.705 2.99998V229.48C613.705 256.08 596.225 271.28 571.905 271.28C547.585 271.28 530.105 256.08 530.105 229.48V2.99998H568.105V231.38C568.105 235.18 569.245 237.08 571.905 237.08C574.565 237.08 575.705 235.18 575.705 231.38V2.99998H613.705ZM674.595 156.9C674.595 153.1 673.455 151.2 670.795 151.2H666.995V269H628.995V2.99998H671.175C698.915 2.99998 712.595 14.4 712.595 41V94.96C712.595 117.76 711.075 128.78 696.635 133.72V134.48C711.075 139.04 712.595 150.44 712.595 173.24V234.04C712.595 251.14 712.975 256.46 717.155 268.24V269H678.015C675.355 258.74 674.595 251.9 674.595 234.42V156.9ZM674.595 42.9C674.595 39.1 673.455 37.2 670.795 37.2H666.995V117H670.795C673.455 117 674.595 115.1 674.595 111.3V42.9ZM853.224 41V120.8C853.224 147.4 839.544 158.8 811.424 158.8H807.624V269H769.624V2.99998H811.804C839.544 2.99998 853.224 14.4 853.224 41ZM815.224 42.9C815.224 39.1 814.084 37.2 811.424 37.2H807.624V124.6H811.424C814.084 124.6 815.224 122.7 815.224 118.9V42.9ZM952.113 42.52V229.48C952.113 256.08 934.633 271.28 910.313 271.28C885.993 271.28 868.513 256.08 868.513 229.48V42.52C868.513 16.3 886.753 0.719989 910.693 0.719989C934.633 0.719989 952.113 15.92 952.113 42.52ZM914.113 40.62C914.113 36.82 912.973 34.92 910.313 34.92C907.653 34.92 906.513 36.82 906.513 40.62V231.38C906.513 235.18 907.653 237.08 910.313 237.08C912.973 237.08 914.113 235.18 914.113 231.38V40.62ZM967.402 2.99998H1005.4V234.8H1021.36V269H967.402V2.99998ZM1072.75 2.99998V269H1034.75V2.99998H1072.75ZM1133.59 40.62C1133.59 36.82 1132.45 34.92 1129.79 34.92C1127.13 34.92 1125.99 36.82 1125.99 40.62V231.38C1125.99 235.18 1127.13 237.08 1129.79 237.08C1132.45 237.08 1133.59 235.18 1133.59 231.38V156.52H1171.59V229.48C1171.59 256.08 1154.11 271.28 1129.79 271.28C1105.47 271.28 1087.99 256.08 1087.99 229.48V42.52C1087.99 16.3 1106.23 0.719989 1130.17 0.719989C1154.11 0.719989 1171.59 15.92 1171.59 42.52V103.7H1133.59V40.62ZM1273.95 2.99998L1246.59 181.6V269H1208.59V181.6L1181.23 2.99998H1219.99L1225.69 94.58L1227.21 132.58H1227.97L1229.49 94.58L1235.19 2.99998H1273.95ZM74.9665 307L95.8665 573H54.0665L51.7865 509.54H41.1465L38.8665 573H0.866455L21.7665 307H74.9665ZM42.2865 475.34H50.6465L47.9865 394.78L46.8465 348.8H46.0865L44.9465 394.78L42.2865 475.34ZM209.866 307V573H162.366L136.146 367.8H135.386L141.466 453.3L143.366 573H107.266V307H154.766L180.986 512.2H181.746L175.666 426.7L173.766 307H209.866ZM309.052 345V535C309.052 561.6 295.372 573 267.252 573H225.452V307H267.632C295.372 307 309.052 318.4 309.052 345ZM271.052 346.9C271.052 343.1 269.912 341.2 267.252 341.2H263.452V538.8H267.252C269.912 538.8 271.052 536.9 271.052 533.1V346.9ZM449.682 345V535C449.682 561.6 436.002 573 407.882 573H366.082V307H408.262C436.002 307 449.682 318.4 449.682 345ZM411.682 346.9C411.682 343.1 410.542 341.2 407.882 341.2H404.082V538.8H407.882C410.542 538.8 411.682 536.9 411.682 533.1V346.9ZM548.571 346.52V533.48C548.571 560.08 531.091 575.28 506.771 575.28C482.451 575.28 464.971 560.08 464.971 533.48V346.52C464.971 320.3 483.211 304.72 507.151 304.72C531.091 304.72 548.571 319.92 548.571 346.52ZM510.571 344.62C510.571 340.82 509.431 338.92 506.771 338.92C504.111 338.92 502.971 340.82 502.971 344.62V535.38C502.971 539.18 504.111 541.08 506.771 541.08C509.431 541.08 510.571 539.18 510.571 535.38V344.62ZM609.46 344.62C609.46 340.82 608.32 338.92 605.66 338.92C603 338.92 601.86 340.82 601.86 344.62V535.38C601.86 539.18 603 541.08 605.66 541.08C608.32 541.08 609.46 539.18 609.46 535.38V460.52H647.46V533.48C647.46 560.08 629.98 575.28 605.66 575.28C581.34 575.28 563.86 560.08 563.86 533.48V346.52C563.86 320.3 582.1 304.72 606.04 304.72C629.98 304.72 647.46 319.92 647.46 346.52V407.7H609.46V344.62ZM746.349 307V533.48C746.349 560.08 728.869 575.28 704.549 575.28C680.229 575.28 662.749 560.08 662.749 533.48V307H700.749V535.38C700.749 539.18 701.889 541.08 704.549 541.08C707.209 541.08 708.349 539.18 708.349 535.38V307H746.349ZM898.438 307V573H862.338L864.618 402L864.238 356.4H863.478L860.818 402L847.138 573H813.318L799.638 402L796.598 356.4H795.838L795.458 402L797.738 573H761.638V307H823.578L828.138 458.62L830.038 500.8H830.798L832.318 458.62L836.498 307H898.438ZM967.165 307V341.2H951.965V419.48H965.265V453.68H951.965V538.8H969.065V573H913.965V307H967.165ZM1085.02 307V573H1037.52L1011.3 367.8H1010.54L1016.62 453.3L1018.52 573H982.424V307H1029.92L1056.14 512.2H1056.9L1050.82 426.7L1048.92 307H1085.02ZM1174.71 307V341.2H1155.71V573H1117.71V341.2H1098.71V307H1174.71ZM1270.84 491.3V533.48C1270.84 560.08 1253.36 575.28 1229.04 575.28C1205.1 575.28 1187.24 560.08 1187.24 533.48V479.52H1225.24V535.38C1225.24 539.18 1226.38 541.08 1229.04 541.08C1231.7 541.08 1232.84 539.18 1232.84 535.38V491.3C1232.84 475.34 1222.96 459.38 1212.7 442.28C1200.54 422.52 1187.24 401.24 1187.24 376.92V346.52C1187.24 320.3 1205.48 304.72 1229.42 304.72C1253.36 304.72 1270.84 319.92 1270.84 346.52V388.7H1232.84V344.62C1232.84 340.82 1231.7 338.92 1229.04 338.92C1226.38 338.92 1225.24 340.82 1225.24 344.62V376.92C1225.24 392.88 1235.12 408.84 1245.76 425.94C1257.92 445.7 1270.84 466.98 1270.84 491.3Z" fill="#B22222" fill-opacity="0.15"/>
</svg>
