<svg width="225" height="321" viewBox="0 0 225 321" fill="none" xmlns="http://www.w3.org/2000/svg">
<path d="M99.7524 271.2C99.7524 287.1 95.1024 299.4 85.8023 308.1C76.5023 316.5 64.6523 320.7 50.2523 320.7C35.8523 320.7 24.0023 316.5 14.7023 308.1C5.40234 299.4 0.752344 287.1 0.752344 271.2V207.3H45.7523V273.45C45.7523 277.95 47.2523 280.2 50.2523 280.2C53.2523 280.2 54.7523 277.95 54.7523 273.45V221.25C54.7523 211.65 52.2023 202.2 47.1023 192.9C42.3023 183.3 36.9023 173.4 30.9023 163.2C23.7023 151.5 16.8023 139.35 10.2023 126.75C3.90234 113.85 0.752344 100.2 0.752344 85.8V49.8C0.752344 34.2 5.40234 22.05 14.7023 13.35C24.3023 4.64998 36.3023 0.299986 50.7023 0.299986C65.1023 0.299986 76.8023 4.64998 85.8023 13.35C95.1024 21.75 99.7524 33.9 99.7524 49.8V99.75H54.7523V47.55C54.7523 43.05 53.2523 40.8 50.2523 40.8C47.2523 40.8 45.7523 43.05 45.7523 47.55V85.8C45.7523 95.4 48.1523 105 52.9523 114.6C58.0523 123.9 63.7523 133.65 70.0523 143.85C77.2523 155.55 84.0023 167.85 90.3024 180.75C96.6024 193.35 99.7524 206.85 99.7524 221.25V271.2ZM225 318H175.5L172.8 242.85H160.2L157.5 318H112.5L137.25 2.99998H200.25L225 318ZM171.45 202.35L168.3 106.95L166.95 52.5H166.05L164.7 106.95L161.55 202.35H171.45Z" fill="#B22222" fill-opacity="0.05"/>
</svg>
