<svg width="305" height="152" viewBox="0 0 305 152" fill="none" xmlns="http://www.w3.org/2000/svg">
<path d="M22.8 49.5V60.6C22.8 67.6 18.2 71.6 11.8 71.6C5.5 71.6 0.8 67.6 0.8 60.6V46.4H10.8V61.1C10.8 62.1 11.1 62.6 11.8 62.6C12.5 62.6 12.8 62.1 12.8 61.1V49.5C12.8 45.3 10.2 41.1 7.5 36.6C4.3 31.4 0.8 25.8 0.8 19.4V11.4C0.8 4.5 5.6 0.399997 11.9 0.399997C18.2 0.399997 22.8 4.4 22.8 11.4V22.5H12.8V10.9C12.8 9.9 12.5 9.39999 11.8 9.39999C11.1 9.39999 10.8 9.9 10.8 10.9V19.4C10.8 23.6 13.4 27.8 16.2 32.3C19.4 37.5 22.8 43.1 22.8 49.5ZM45.1328 0.999995L50.6328 71H39.6328L39.0328 54.3H36.2328L35.6328 71H25.6328L31.1328 0.999995H45.1328ZM36.5328 45.3H38.7328L38.0328 24.1L37.7328 12H37.5328L37.2328 24.1L36.5328 45.3ZM11 81V151H1V81H11ZM42.0117 81V151H29.5117L22.6117 97H22.4117L24.0117 119.5L24.5117 151H15.0117V81H27.5117L34.4117 135H34.6117L33.0117 112.5L32.5117 81H42.0117ZM65.6133 81V90H60.6133V151H50.6133V90H45.6133V81H65.6133ZM83.1094 81V90H79.1094V110.6H82.6094V119.6H79.1094V142H83.6094V151H69.1094V81H83.1094ZM99.125 121.5C99.125 120.5 98.825 120 98.125 120H97.125V151H87.125V81H98.225C105.525 81 109.125 84 109.125 91V105.2C109.125 111.2 108.725 114.1 104.925 115.4V115.6C108.725 116.8 109.125 119.8 109.125 125.8V141.8C109.125 146.3 109.225 147.7 110.325 150.8V151H100.025C99.325 148.3 99.125 146.5 99.125 141.9V121.5ZM99.125 91.5C99.125 90.5 98.825 90 98.125 90H97.125V111H98.125C98.825 111 99.125 110.5 99.125 109.5V91.5ZM140.148 81V151H127.648L120.748 97H120.548L122.148 119.5L122.648 151H113.148V81H125.648L132.548 135H132.748L131.148 112.5L130.648 81H140.148ZM162.75 81L168.25 151H157.25L156.65 134.3H153.85L153.25 151H143.25L148.75 81H162.75ZM154.15 125.3H156.35L155.65 104.1L155.35 92H155.15L154.85 104.1L154.15 125.3ZM188.797 81V90H183.797V151H173.797V90H168.797V81H188.797ZM202.293 81V151H192.293V81H202.293ZM228.305 91.4V140.6C228.305 147.6 223.705 151.6 217.305 151.6C210.905 151.6 206.305 147.6 206.305 140.6V91.4C206.305 84.5 211.105 80.4 217.405 80.4C223.705 80.4 228.305 84.4 228.305 91.4ZM218.305 90.9C218.305 89.9 218.005 89.4 217.305 89.4C216.605 89.4 216.305 89.9 216.305 90.9V141.1C216.305 142.1 216.605 142.6 217.305 142.6C218.005 142.6 218.305 142.1 218.305 141.1V90.9ZM259.328 81V151H246.828L239.928 97H239.728L241.328 119.5L241.828 151H232.328V81H244.828L251.728 135H251.928L250.328 112.5L249.828 81H259.328ZM281.93 81L287.43 151H276.43L275.83 134.3H273.03L272.43 151H262.43L267.93 81H281.93ZM273.33 125.3H275.53L274.83 104.1L274.53 92H274.33L274.03 104.1L273.33 125.3ZM290.43 81H300.43V142H304.63V151H290.43V81Z" fill="white"/>
</svg>
